<svg width="104" height="92" viewBox="0 0 104 92" fill="none" xmlns="http://www.w3.org/2000/svg">
<path d="M2.46095 85.8309C30.3485 90.6414 10.7946 87.3578 33.4995 91.1482C33.54 91.2042 33.5662 91.2379 33.6507 91.2379C33.7367 91.2379 33.8044 91.1911 33.8447 91.0898C67.2598 83.8044 65.248 84.1491 65.7402 84.2556C103.049 92.4278 100.847 92.0001 101.227 92.0001C102.246 92.0001 103.135 91.1329 103.069 90.0258L100.185 47.2626C100.131 46.3951 99.497 45.6954 98.6432 45.5607L82.614 42.9746L84.2951 40.7577C86.554 37.7705 89.0515 34.8231 90.4654 31.284C92.847 25.3334 91.3527 17.9886 86.7286 12.9888C79.9655 5.84552 69.2413 5.83456 62.4954 12.1463C62.4154 12.0686 60.7393 9.49352 57.2772 8.49279C55.2215 7.89892 51.8904 8.02942 49.9034 8.76637C48.4776 7.96266 47.0486 7.14397 45.6588 6.28166C44.2794 5.4171 42.5989 3.56803 41.0258 4.21007C41.1025 4.06802 41.1587 3.92873 41.1589 3.79948C41.1603 2.85645 39.0122 1.52112 38.3326 0.994534C36.6535 -0.308452 35.8215 -0.252303 34.2068 0.680786C30.4248 2.87462 26.9332 5.74964 25.7442 9.95441C25.24 11.7343 25.3107 12.8022 26.7442 14.009C28.1651 15.2043 30.1351 16.8651 31.9518 18.3962C32.4617 18.8243 32.5637 18.3993 32.7396 17.9585C32.7695 18.968 33.5086 18.994 35.8079 21.1296C37.636 22.8354 40.4302 24.7751 42.6381 26.5715C44.3544 27.97 46.2535 30.3844 48.756 30.3844C49.4966 30.3844 50.3062 30.1608 50.8542 29.5282C51.3207 28.9891 51.4364 28.193 51.2097 27.5612C52.1327 27.8581 53.2136 27.6508 53.9091 26.9829C54.7362 26.2004 54.9287 24.8734 54.4304 23.8612C56.2523 24.3365 56.8576 23.9449 56.9891 23.9323C56.7474 27.9219 57.9107 31.9905 60.3018 35.4249C62.2934 38.3129 64.1137 40.7201 65.8496 42.9489C51.5875 45.9272 52.5097 45.7406 52.4148 45.7411C52.1514 45.7589 53.8388 45.9426 28.8862 42.7852C28.1926 42.6979 27.4959 43.0185 27.1132 43.6045L25.3108 46.3535C19.1982 43.6679 12.0846 46.1292 8.97867 52.2247C7.05475 56.0252 7.06329 60.4618 9.00157 64.3966C9.57438 65.5621 10.4245 66.6603 11.2675 67.7244L1.23216 82.9984C0.501734 84.1123 1.15269 85.5999 2.46095 85.8309ZM34.0246 90.6437C43.5107 66.888 44.3092 68.3508 52.5713 46.1258C53.7164 45.9438 48.6306 46.9508 66.122 43.2979C66.278 43.4974 66.4386 43.7058 66.5922 43.9006C65.8752 44.3593 65.2068 44.8854 64.9561 45.7407C64.5269 47.1952 65.6318 48.8883 64.9085 50.2238C64.3043 51.3206 62.8259 51.5114 61.7687 52.203C60.5121 53.0344 59.9841 54.6786 60.2536 56.1666C59.8542 56.3797 59.463 56.5992 59.0909 56.8317C58.8666 56.9719 59.0816 57.3072 59.3013 57.1686C59.6295 56.9636 59.989 56.7804 60.3391 56.5906C60.9337 58.6156 63.1237 59.9156 65.29 59.8973C66.3789 59.8814 67.4759 59.5873 68.5172 59.8576C69.0698 59.9996 68.921 60.0206 69.5386 60.1517C69.4141 60.83 69.7995 58.7156 68.6827 64.8161C67.7288 64.9753 66.8478 65.2931 66.2194 65.7455C62.4486 68.4602 63.4907 76.6218 65.2468 77.9256C65.5516 78.152 65.8996 78.2473 66.263 78.2662C65.9473 80.0633 65.621 81.9365 65.2962 83.8298C65.0043 83.8546 66.6773 83.5167 34.0246 90.6437ZM65.6961 83.8515C66.6401 78.3512 66.1872 80.9847 66.7228 78.25C68.6058 78.0174 70.1295 76.1311 71.8823 76.7142C72.5037 76.9209 72.9809 77.4228 73.5696 77.7097C74.7931 78.306 76.2682 77.8829 77.4766 77.2565C78.3486 76.8044 79.198 76.2186 79.6769 75.361C79.9814 74.8159 80.0935 74.1408 79.9599 73.5404C82.1915 73.2356 82.492 74.7537 85.4276 78.0856C86.0058 78.743 86.5618 78.3858 86.8489 77.5849C87.3589 76.1628 88.07 75.1502 88.9626 74.5743C89.8508 74.0017 90.5498 74.3303 90.9638 75.2737C91.2027 75.8183 91.2898 76.4564 91.5444 77.0319C92.2735 78.6842 94.4706 79.5088 96.1582 78.7345C96.3222 80.6948 97.0941 82.8279 95.8154 84.2218C94.4653 85.6884 92.0135 84.9666 90.3218 83.9115C88.6304 82.8562 86.7527 81.5061 84.8362 82.0569C82.2838 82.7896 82.1725 85.2705 82.2415 87.4705C77.8451 86.5079 65.9677 83.8893 65.6961 83.8515ZM98.5803 45.9531C99.2494 46.0586 99.7462 46.607 99.7881 47.2878L101.673 75.2338C101.173 75.0268 100.657 74.8633 100.114 74.7945C98.8182 74.6238 97.3595 75.0351 96.6379 76.129C96.2181 76.7694 96.1124 77.5115 96.135 78.2919C94.6181 79.1077 92.5627 78.3564 91.9077 76.8712C91.6679 76.3258 91.5809 75.6927 91.3279 75.1141C90.846 74.0133 89.8952 73.499 88.7468 74.2405C87.7796 74.8646 87.0151 75.9447 86.4748 77.4506C86.2939 77.9601 86.0819 78.2272 85.7257 77.8232C82.8042 74.5056 82.3647 72.7657 79.8337 73.1614C78.9578 71.1662 75.7622 72.3568 74.7967 70.6654C74.318 69.8268 74.7129 68.774 74.6223 67.8126C74.3892 65.3395 71.6854 64.5051 69.2421 64.7405C70.1277 59.897 71.0476 54.8314 71.8414 50.5223C72.5651 51.355 73.1915 51.9172 73.7384 52.2202C72.6514 52.3268 71.8384 52.743 71.8384 53.2425C71.8384 53.8227 72.9328 54.2931 74.2827 54.2931C76.8861 54.2931 77.6856 52.7634 75.3029 52.2905C75.9615 51.9077 75.8147 51.9125 82.3422 43.333L98.5803 45.9531ZM57.167 8.8747C59.1193 9.43882 60.8994 10.6464 62.2029 12.4216C61.4659 13.1441 60.7896 13.9398 60.182 14.8007C57.1155 12.7542 53.9134 11.0166 50.3728 9.03029C52.3141 8.41817 55.2882 8.33162 57.167 8.8747ZM56.8534 23.5593C56.0019 23.8624 55.0766 23.6404 54.0418 23.3411C54.0414 23.341 54.0409 23.3413 54.0405 23.3412C54.0181 22.943 53.3391 23.3117 49.9615 20.9344C49.8715 20.8711 49.7477 20.8933 49.6844 20.9825C49.6215 21.0726 49.6429 21.1964 49.7325 21.2596C52.2539 23.0332 53.5571 23.4178 53.7897 23.5363C53.7905 23.5792 53.8037 23.6216 53.8323 23.6567C54.527 24.5187 54.4354 25.9377 53.6347 26.6953C52.8942 27.4059 51.6386 27.5026 50.7766 26.913C50.7213 26.8753 50.6569 26.8798 50.5976 26.9025C50.5849 26.8399 50.5536 26.7828 50.4902 26.7566C49.476 26.3367 48.522 25.2216 48.0434 24.5944C47.9763 24.5067 47.8517 24.49 47.7652 24.5567C47.6778 24.6231 47.6607 24.7481 47.7275 24.8354C48.3415 25.6404 49.2928 26.691 50.338 27.1238C50.3628 27.1342 50.3889 27.1389 50.4141 27.1389C50.4373 27.1389 50.4576 27.1272 50.4791 27.1194C50.488 27.1576 50.4999 27.1961 50.5309 27.2243C51.0463 27.6927 51.0576 28.686 50.5538 29.2681C49.9351 29.9827 48.8954 30.0766 48.128 29.9268C45.9894 29.4958 44.5465 27.6126 42.8888 26.2633C40.0189 23.9278 38.9136 23.3779 35.7284 20.5164C33.7499 18.689 33.0324 18.7116 33.1439 17.7448C33.2265 17.0501 33.3934 16.3111 33.669 15.4188C34.4972 12.7241 35.8968 10.1505 37.7175 7.9762C41.0576 3.97841 41.3776 3.5849 44.4254 5.88733C45.728 6.86989 47.5113 7.87413 49.7014 9.10883C49.7339 9.14866 49.7727 9.17084 49.8228 9.17714C54.0703 11.5685 64.8442 17.2173 67.113 21.6516C67.5845 22.4714 67.7328 23.1284 67.5543 23.6047C67.399 24.0184 66.9521 24.2899 66.5785 24.393C64.4071 25.006 63.1865 23.8954 59.0412 21.3C58.8512 21.1724 58.2312 20.626 58.001 20.6392C56.1797 19.6463 54.4076 18.5252 52.7343 17.3024C52.6462 17.2383 52.5216 17.257 52.4568 17.3454C52.3919 17.4339 52.4113 17.5585 52.4998 17.6229C54.1814 18.8522 55.9621 19.9789 57.7918 20.9773C57.8394 21.372 57.9654 21.1389 57.9615 21.6823C57.9502 21.8713 57.9713 22.1473 57.852 22.5152C57.6828 23.0237 57.3285 23.3939 56.8534 23.5593ZM75.8812 31.6707C73.5097 30.5707 71.5216 28.5892 70.6236 26.1311C70.0433 24.5494 69.7969 23.3253 70.2421 21.6401C70.6633 20.0186 71.5536 18.5084 72.7856 17.3717C72.7113 17.4373 72.4113 17.457 72.1176 17.4709C78.5911 15.3621 84.0998 22.274 80.6732 28.2905C79.914 29.6287 78.5385 31.1789 76.9604 31.5161C76.3297 31.6389 76.1619 31.6421 75.8812 31.6707ZM60.6283 35.1982C58.2093 31.7237 57.094 27.7625 57.3926 23.7371C58.4656 23.0576 58.3401 21.7645 58.3589 21.685C58.3597 21.5542 58.3609 21.3928 58.3162 21.2503C59.5326 22.1364 60.2669 22.5612 62.3717 23.8364C63.6787 24.6418 64.9468 25.224 66.4109 24.8528C66.8369 29.3187 71.323 33.0146 77.0403 31.9058C79.8904 31.2963 82.9225 26.9389 81.9051 22.62C80.5783 16.9444 73.6802 14.8269 69.3253 18.4943C68.4226 19.1941 67.6959 20.0665 67.1847 21.0231C65.6794 18.7057 63.088 16.7714 60.5097 15.0254C66.4864 6.56142 78.8585 5.25066 86.4546 13.2779C90.9591 18.1485 92.4223 25.3252 90.0959 31.1365C88.6997 34.6326 86.2047 37.5687 83.9784 40.5178C75.4011 51.8124 75.5829 51.8055 74.8979 52.0551C73.3688 52.5987 70.4062 47.9195 69.6389 47.0041C66.6061 43.3939 63.3292 39.1148 60.6283 35.1982ZM21.2829 45.7241C29.8626 46.5468 34.2946 55.2254 32.0746 61.9731C31.2336 64.5036 29.6794 66.5721 28.0793 68.8037C21.0303 78.7223 21.3521 78.4404 20.9681 78.4504C20.6445 78.4595 19.803 77.7852 19.5542 77.5744C18.5765 76.7485 17.7727 75.725 16.8979 74.5704C13.7091 70.3434 13.0364 69.3221 12.9526 69.257C11.7888 67.6448 10.2273 65.9905 9.35825 64.2211C4.89135 55.1538 11.5875 44.8314 21.2829 45.7241ZM1.56439 83.2166L11.5258 68.055C14.191 71.4151 17.1611 76.0173 19.2009 77.788C16.2543 78.6152 17.7809 80.4447 21.3654 80.4447C23.0823 80.4447 24.5176 79.9799 24.944 79.3535C25.2048 79.4268 26.9902 79.9005 27.1986 79.9005C27.4364 79.9005 27.4718 79.5542 27.2378 79.5069C26.5137 79.3602 25.7954 79.1801 25.0837 78.9809C25.0837 78.9787 25.0854 78.9765 25.0854 78.9743C25.0854 78.2992 23.9223 77.7374 22.3453 77.5696C30.3995 66.2947 31.5225 64.8951 32.4518 62.0981C33.4697 59.0046 33.1241 55.5431 31.7062 52.6023C34.2741 50.465 36.6058 54.6735 39.5792 54.4382C39.8574 54.7938 40.1394 55.1457 40.428 55.493C37.4732 57.1029 36.6005 56.7965 36.7297 57.2342C36.7605 57.3382 36.8697 57.3996 36.9766 57.3685C38.2677 56.9861 39.512 56.4526 40.6926 55.8025C41.5563 56.8231 42.4518 57.8169 43.4007 58.7576C43.5834 58.9402 43.8684 58.6614 43.6802 58.475C42.7592 57.562 41.8897 56.5978 41.0496 55.6087C43.1279 54.4061 44.983 52.8147 46.4653 50.9288C46.6278 50.7215 46.3145 50.4771 46.1525 50.6835C44.6864 52.5488 42.8491 54.1222 40.7888 55.3037C40.5329 54.9969 40.2791 54.6891 40.0314 54.3757C42.5742 53.8385 43.7002 51.3238 44.2736 48.8009C44.5397 47.6074 44.7145 46.3643 44.5008 45.1663C46.4631 45.4135 51.4861 46.0572 52.1486 46.1295C49.427 53.5942 48.1868 57.0186 42.4996 69.662C42.4303 69.6688 42.3647 69.6974 42.335 69.7654C41.0596 72.6737 34.127 88.3798 33.3235 90.7496C32.8796 90.7434 35.0959 91.0687 2.52965 85.4397C1.51758 85.2608 0.981459 84.1047 1.56439 83.2166Z" fill="#141B34"/>
<path d="M31.1186 80.4366C32.4396 80.531 33.778 80.5421 35.1162 80.4661C35.3638 80.4521 35.3754 80.0661 35.0937 80.0695C31.4802 80.2741 30.9664 79.7995 30.9346 80.224C30.9268 80.3338 31.0091 80.4289 31.1186 80.4366ZM48.4105 73.2809C46.6729 76.2285 45.6917 76.3127 46.017 76.6513C46.0911 76.7299 46.2174 76.7349 46.2976 76.6579C47.1946 75.8025 47.9976 74.7639 48.7529 73.4827C48.8866 73.256 48.5436 73.0545 48.4105 73.2809ZM55.9513 59.3271C54.9927 60.2984 54.2232 61.3214 53.5116 62.5117C53.376 62.739 53.7185 62.9403 53.8532 62.7158C55.5744 59.8328 56.5562 59.6446 56.2323 59.3256C56.1539 59.2483 56.0286 59.2491 55.9513 59.3271ZM50.1617 69.7439C50.0569 69.9865 50.422 70.1425 50.5266 69.9023C51.0572 68.6815 51.5335 67.4934 52.0822 66.2446C52.1264 66.1441 52.0806 66.0269 51.9801 65.9826C51.673 65.8524 51.7549 66.0806 50.1617 69.7439ZM39.0095 79.5898C38.7734 79.6349 38.8078 79.9837 39.0463 79.9837C39.2689 79.9837 41.3771 79.5295 42.9345 78.8616C43.0355 78.8182 43.082 78.7014 43.0389 78.6004C42.8649 78.1985 42.5356 78.9204 39.0095 79.5898ZM22.3052 63.0423C24.2994 62.6212 26.4814 59.5208 25.7559 56.4218C24.8624 52.6049 20.3265 50.8196 16.8642 53.4114C15.359 54.5383 14.402 56.3404 14.7388 58.3658C15.2679 61.5483 18.5743 63.8302 22.3052 63.0423ZM64.23 23.5707C64.2373 23.5707 64.2443 23.5703 64.2517 23.5696C64.3608 23.5579 64.4396 23.4597 64.4279 23.3507C64.3689 22.8053 64.7698 22.2364 65.3039 22.1087C65.8368 21.979 66.452 22.3039 66.6472 22.8178C66.7419 23.063 67.112 22.9221 67.019 22.6765C66.7512 21.9736 65.9393 21.5467 65.2107 21.7221C64.4803 21.8971 63.9521 22.647 64.0328 23.3933C64.0437 23.4954 64.1298 23.5707 64.23 23.5707ZM87.7617 8.73596L89.3336 4.41151C89.4234 4.16282 89.0479 4.03076 88.9595 4.27567L87.3876 8.60011C87.2986 8.84665 87.6713 8.98337 87.7617 8.73596ZM89.6728 11.6469C92.1017 9.29252 94.668 7.0158 97.2986 4.87959C97.505 4.71263 97.249 4.40453 97.0487 4.57142C94.4079 6.71462 91.8339 8.9991 89.3965 11.3612C89.2082 11.543 89.4822 11.8299 89.6728 11.6469ZM96.4782 12.2061L91.5475 14.5442C91.3124 14.6571 91.477 15.0141 91.7182 14.9036L96.6489 12.5655C96.882 12.4536 96.7228 12.0969 96.4782 12.2061ZM82.7969 68.4286C83.3077 67.059 85.1215 66.7507 86.0556 67.8774C86.3693 68.2567 86.5561 68.795 86.8559 69.2378C87.1229 69.6302 87.5964 70.035 88.1336 70.035C88.5991 70.035 88.9095 69.7495 89.2203 69.4431L89.2925 69.3721C89.6348 69.0399 90.536 68.29 91.4652 68.514C92.0095 68.6441 92.4618 69.0803 92.9765 69.3938C93.7698 69.8778 94.7533 70.0761 95.6701 69.9372C95.9286 69.8984 95.8731 69.5058 95.6111 69.5444C94.7828 69.6678 93.8987 69.4901 93.183 69.0546C92.6602 68.7359 92.1953 68.2803 91.5583 68.1274C90.7658 67.9376 89.839 68.2881 89.0161 69.0872C88.8543 69.2466 88.583 69.5422 88.3051 69.6151C87.8844 69.7249 87.4411 69.3919 87.185 69.0142C86.8896 68.5796 86.7187 68.0549 86.3614 67.6236C85.2312 66.2606 83.0406 66.6388 82.4243 68.2896C82.3331 68.5364 82.7043 68.6739 82.7969 68.4286Z" fill="#141B34"/>
</svg>
