<svg width="124" height="124" viewBox="0 0 124 124" fill="none" xmlns="http://www.w3.org/2000/svg">
<path d="M11.5462 34.8612C14.5576 53.4518 17.0893 66.7372 19.5116 76.6611C19.6241 77.2432 20.0996 77.6783 20.6957 77.7431C41.537 79.7724 40.5611 80.0811 41.3294 79.598L51.6301 73.149C51.6496 73.1689 51.6668 73.1909 51.6864 73.2107C56.8557 78.4176 64.6183 80.4969 71.7261 78.014C72.086 78.8385 72.4435 79.6628 72.8042 80.4873C70.8612 81.6474 69.3001 82.6653 67.991 85.0615C66.3162 89.7271 65.6618 95.5354 64.4309 100.702C62.3888 100.273 62.418 102.489 61.2754 105.327C61.1992 105.547 61.5059 105.704 61.6302 105.484C61.3954 106.903 61.7004 108.084 63.8057 109.415C67.2607 111.599 71.4227 112.304 75.4717 112.864C77.5385 113.15 78.5876 112.943 79.3927 111.022C79.8914 109.832 79.8557 108.639 80.1818 107.439C80.3812 106.706 80.8232 106.121 80.0287 105.46C79.6109 105.113 79.0715 104.98 78.5274 104.891C78.8601 102.967 79.3704 101.314 81.1706 100.169C81.7497 101.466 82.5158 102.584 83.6462 102.743C85.6651 103.037 88.9956 102.95 88.9321 100.231C88.8064 95.5036 85.9512 90.4362 83.9124 86.2523C83.9105 86.2139 83.9183 86.1744 83.9141 86.1363C83.8744 85.7803 83.7131 85.3726 83.3095 85.0132C83.0162 84.4088 82.7235 83.8044 82.4283 83.2C83.1729 81.6811 82.3373 80.9943 80.9884 80.3092C80.1192 78.5547 79.2306 76.8017 78.3337 75.0521C84.3912 70.8236 87.0496 63.7613 86.0648 56.9997C86.6049 57.1254 87.1586 57.1727 87.7068 57.1727C89.1344 57.1727 98.5546 56.2858 100.455 56.2009C100.411 56.4872 100.573 56.645 100.835 56.7788C102.497 57.6309 104.696 56.4143 105.023 55.7974C106.661 55.5182 108.495 54.9806 107.77 53.493C106.821 51.5677 105.321 51.8129 103.666 51.5881C102.702 51.4563 102.314 50.8081 103.27 50.3468C105.491 49.2796 108.638 50.1879 110.453 48.3212C110.901 47.8598 111.207 47.1355 110.88 46.5568C110.393 45.703 107.97 45.1967 106.995 45.0597C106.753 44.8509 105.743 44.4891 104.939 44.5442C104.725 44.5589 104.362 44.6891 104.085 44.8775C100.579 44.8658 96.4832 45.2571 95.8084 44.1575C95.6043 43.8236 95.8809 43.5527 96.2144 43.3572C99.4033 41.4819 102.998 43.552 109.612 41.1911C110.807 40.765 111.702 40.0981 111.427 38.8475C112.437 38.7022 112.698 37.9781 112.296 37.348C112.053 36.9673 111.263 36.3799 110.912 36.1969C110.089 35.7687 108.703 35.7699 108.427 36.6597C106.261 36.1519 104.897 36.1945 94.5276 35.7007C94.0192 35.677 93.5193 35.4325 93.2235 35.0626C92.5721 34.2468 93.0746 33.1776 94.0153 32.6248C94.5204 32.328 95.099 32.177 95.6983 32.0431C95.6819 32.5546 96.2485 32.7437 96.7372 32.73C98.0928 32.6921 99.393 32.0201 100.028 31.2883C101.468 31.105 102.916 30.986 104.366 30.9338C106.027 30.8743 106.784 30.6289 106.52 27.317C108.764 27.2297 109.256 26.0618 107.221 25.7059C107.113 25.9036 108.781 22.8593 110.298 20.0913C112.067 16.8081 109.526 12.8691 105.835 13.0899C102.522 13.2892 100.394 16.778 101.817 19.8417C102.037 20.1846 105.503 25.5945 105.556 25.6775C103.299 25.9977 103.777 27.2455 106.122 27.3186C106.375 30.4772 105.751 30.4867 104.342 30.5368C102.953 30.5869 101.562 30.7013 100.179 30.8718C100.131 30.4935 99.7774 30.3172 99.411 30.2202C98.09 29.8708 96.3646 30.2322 95.8224 31.6101C95.1248 31.7617 94.4421 31.9128 93.8135 32.2825C92.6476 32.9672 92.1146 34.3126 92.9138 35.311C93.2841 35.7744 93.8802 36.0683 94.509 36.0974C104.92 36.5924 106.245 36.5478 108.379 37.0557C108.413 37.6066 108.784 38.208 109.303 38.4862C109.691 38.6939 110.383 38.8743 111.025 38.8735C111.308 39.9281 110.496 40.4533 109.478 40.8169C102.899 43.1649 99.357 41.0477 96.0126 43.0148C95.2956 43.4363 95.2229 43.9606 95.47 44.3651C96.244 45.6296 99.6157 45.3022 103.736 45.2764C103.64 45.5691 103.884 45.7751 104.142 45.9419C104.445 46.1377 104.756 46.3372 105.109 46.4121C105.882 46.576 106.781 46.0251 107.069 45.4644C107.856 45.5826 110.159 46.093 110.534 46.7528C110.76 47.1522 110.513 47.689 110.167 48.0441C108.522 49.737 105.34 48.9111 103.098 49.989C101.812 50.607 102.21 51.7906 103.611 51.9816C105.371 52.2219 106.581 51.9802 107.412 53.668C107.475 53.7968 107.541 53.9494 107.545 54.1015C107.566 54.7362 106.456 55.1281 105.08 55.3757C104.777 54.2232 101.527 54.7286 100.651 55.7942C98.9609 55.8698 100.807 55.7704 89.3679 56.6856C88.2946 56.7735 87.0952 56.8702 85.9977 56.5775C85.1949 51.8415 82.5185 47.7923 78.9246 45.0429C78.7823 44.2979 78.6389 43.5601 78.4953 42.8231C78.4953 42.823 78.4953 42.8233 78.4953 42.8231C77.3218 36.798 76.1083 31.0425 74.8751 25.6662C74.7645 25.0937 74.3034 24.6594 73.727 24.5849L60.644 22.9497C60.6411 22.9487 60.6383 22.9495 60.6353 22.9486C59.2533 22.7778 54.1421 22.1289 53.7633 22.1001C53.7621 22.1003 53.761 22.0991 53.7598 22.0994C53.7591 22.0995 53.7589 22.1002 53.7583 22.1004C53.466 22.0793 53.1736 22.1439 52.9397 22.295C46.1466 26.0382 38.6479 30.5519 32.7174 35.5505C32.1479 35.9047 32.9085 35.7184 13.0304 33.2808C12.1124 33.1716 11.3807 33.9798 11.5462 34.8612ZM103.149 21.1834L102.165 19.6515C100.848 16.7929 102.937 13.4788 106.122 13.4788C108.404 13.4788 110.326 15.2661 110.465 17.5766C110.465 17.5766 110.465 17.577 110.466 17.577C110.557 19.0396 109.938 19.9089 109.424 20.8636C108.945 21.7441 106.959 25.3483 106.825 25.6045C106.594 26.0122 106.491 26.2575 106.436 26.2763C106.356 26.2621 106.256 26.0382 103.149 21.1834ZM37.6071 61.1927L39.6495 71.6226C39.293 71.4221 38.7905 71.4206 38.5372 71.743C38.9267 71.3695 38.9267 70.6779 38.5769 70.2725C37.8534 69.4364 36.3722 69.8876 36.1367 71.2025C35.9777 70.6143 35.3657 70.1772 34.7615 70.2169C33.755 70.2822 33.0906 71.4852 33.8523 72.3973C33.5951 72.5754 33.392 72.8257 33.2561 73.109C32.9445 72.6789 32.4244 72.422 31.9004 72.4511C30.6777 72.5472 29.9521 74.0642 30.9414 75.0651C30.7892 75.1218 30.6402 75.2134 30.4989 75.3387C30.4579 75.3751 30.4267 75.425 30.3884 75.4657C29.0857 71.9137 27.9987 71.5399 30.4325 68.9211C31.1039 68.1945 37.314 61.4891 37.6071 61.1927ZM60.4524 23.3262C63.3991 29.2442 67.0692 35.8463 70.548 41.4889C68.1149 41.1209 66.0589 41.2459 63.9507 41.6949C63.4278 41.7387 62.9044 41.7965 62.3815 41.8854C62.1693 41.8456 59.9145 42.3677 58.1662 43.1029C57.3279 38.9148 55.5601 30.0824 54.0475 22.5255L60.4524 23.3262ZM57.7941 43.2687C53.0121 45.3931 49.0454 49.3198 47.5647 54.8445C46.2328 51.1637 44.9004 47.4951 43.5612 43.8209C46.5898 37.5319 50.4459 30.1898 53.9455 24.0405L57.7941 43.2687ZM43.1594 43.8792C44.5758 47.7644 45.9845 51.6416 47.3927 55.534C47.0693 56.9155 46.8844 58.3028 46.8317 59.6747C44.4351 59.7233 42.0004 59.8244 39.5899 59.9792C38.9252 60.0216 38.402 60.0709 37.8657 60.4472L33.039 35.7981C34.67 34.4289 36.465 33.0537 38.4511 31.6517C39.7389 35.1628 41.9305 40.4771 43.1594 43.8792ZM31.5084 75.428L31.5092 75.4284C31.7544 75.5162 31.8892 75.1398 31.6392 75.0527C31.6388 75.0527 31.6377 75.0523 31.6373 75.0523C31.1533 74.8831 30.8144 74.3343 30.8808 73.8305C30.9542 73.3283 31.4257 72.887 31.928 72.8474C32.4806 72.8206 32.9855 73.2228 33.0982 73.6826C33.1207 73.773 33.1963 73.8363 33.2957 73.8336C33.5674 73.8268 33.4153 73.5423 33.7265 73.0853C34.6146 71.7549 36.4999 72.8982 35.5387 74.0486C35.3808 74.2393 35.6472 74.4899 35.8278 74.3203C36.8652 73.3323 38.146 75.9931 37.4886 77.0076C37.1389 77.5382 36.3797 77.6717 35.6116 77.7369C34.0681 77.8652 32.9536 78.3027 31.4366 77.9702C31.2561 77.9356 31.0493 77.8918 30.8703 77.8025C30.5346 77.6477 30.2788 77.3236 30.2024 76.9552C30.0749 76.3627 30.8018 75.1857 31.5084 75.428ZM31.6373 78.4779L31.6043 78.3994C33.1488 78.6663 34.1351 78.2585 35.6446 78.1328C37.5751 77.9698 37.7032 77.2999 37.8212 77.2246C38.1079 76.7834 38.1513 76.2188 37.9564 75.552C38.7494 75.456 39.7132 75.465 40.2935 74.9115L41.1423 79.2462C40.5081 79.5659 41.3324 79.4086 31.6373 78.4779ZM41.5027 79.0205L40.6087 74.4552C40.8993 73.7504 40.5309 72.6983 40.1513 72.1194L37.9496 60.8754C37.9552 60.8707 37.9615 60.8644 37.9671 60.8599C38.4755 60.4669 38.8681 60.4233 39.6151 60.3759C42.0133 60.2219 44.4354 60.1215 46.82 60.0727C46.7237 64.9478 48.3082 69.5706 51.3574 72.8507L41.5027 79.0205ZM51.9682 72.9304C47.4602 68.3859 45.9974 60.9266 48.2411 53.9265C49.681 49.401 53.4749 45.4798 58.3897 43.4383C67.5166 39.6674 77.7537 43.647 82.0359 52.5615C82.0359 52.5611 82.0363 52.5615 82.0359 52.5615C85.4755 59.6889 83.8545 69.4022 76.5265 74.9824L71.5323 77.5695C71.5441 77.5964 71.5558 77.6233 71.5675 77.6502C64.8238 79.9936 57.1656 78.1657 51.9682 72.9304ZM81.6226 81.1144C82.738 81.8347 82.1125 82.9762 82.1353 82.8966C82.0513 83.0302 82.1509 83.0843 81.2356 84.2007C78.3468 83.7787 75.3588 84.6121 73.4076 86.3951C73.3265 86.4693 73.3207 86.595 73.3948 86.6757C73.4691 86.7574 73.5953 86.7622 73.6754 86.6885C75.5664 84.9614 78.4858 84.1634 81.2907 84.6055C81.2944 84.6061 81.2972 84.6027 81.3009 84.603C82.6626 84.834 83.4299 85.3797 83.519 86.1805C83.6509 87.3576 82.2918 88.9938 80.6054 89.6987C78.7045 89.6204 76.8743 90.2482 75.4507 91.4799C75.3111 91.6006 75.3984 91.8288 75.5807 91.8288C75.6269 91.8288 75.6731 91.8129 75.7107 91.7803C77.0893 90.5876 78.7905 90.0089 80.6403 90.0955C80.6443 90.0962 80.6468 90.0917 80.6508 90.0921C80.6559 90.0919 80.6596 90.0965 80.6647 90.0959C82.4699 89.9639 84.733 91.1539 85.0714 92.423C85.3401 93.4307 84.3455 94.1512 83.4489 94.5834C81.5814 94.7337 79.2989 95.5243 77.7554 96.5592C77.5361 96.7057 77.7616 97.0349 77.9766 96.8891C79.4687 95.8888 81.6755 95.1246 83.4805 94.9798C84.3329 95.2034 84.7981 95.5378 84.8564 95.9763C85.0086 97.1282 82.504 98.9454 81.2651 99.646C79.1738 100.866 78.5419 102.441 78.1316 104.831C71.1972 103.844 67.6039 101.737 64.8148 100.806C65.2761 98.8715 65.6505 96.8908 66.0147 94.9579C66.6698 91.4795 67.2885 88.1945 68.3523 85.2246C70.8705 80.6373 76.9234 78.1736 81.6226 81.1144ZM77.3581 43.9809C77.5634 43.7863 77.7629 43.597 77.9847 43.3871L78.1673 43.2141C78.2642 43.7125 78.3611 44.2109 78.4574 44.7128C78.0992 44.4559 77.7334 44.2114 77.3581 43.9809ZM74.4862 25.7481C75.7105 31.0858 76.9145 36.7918 78.0777 42.7514L77.7115 43.0983C77.4609 43.3356 77.2335 43.5512 77.0033 43.7695C75.1339 42.6783 73.1576 41.9357 70.992 41.5526C70.999 41.5075 70.996 41.4597 70.9702 41.4177C67.5184 35.8293 63.8729 29.2802 60.9274 23.3856L73.6766 24.9792C74.0884 25.0324 74.4055 25.3317 74.4862 25.7481ZM53.1431 22.6362C53.2901 22.5416 53.4629 22.5044 53.637 22.4992L53.8262 23.4446C50.3263 29.5693 46.4436 36.9476 43.3718 43.303C42.0984 39.8369 40.0087 34.7553 38.7875 31.4153C42.7307 28.656 47.4267 25.7864 53.1431 22.6362ZM12.9811 33.6751L25.7482 35.2949C25.867 36.0933 26.309 38.3166 26.556 41.5477C26.5973 42.1814 26.5658 42.5976 25.3136 42.7467C21.5368 43.2101 17.7018 43.3971 13.9149 43.304C13.6539 43.2887 13.639 43.6948 13.9048 43.7014C17.7539 43.7956 21.5995 43.6026 25.3613 43.141C25.9323 43.0731 26.6204 42.9201 26.875 42.3352C26.988 42.0624 26.9689 41.7752 26.9526 41.5198C26.7057 38.2916 26.2651 36.0588 26.1594 35.347C32.1898 36.0394 32.0002 36.2459 32.6719 35.9899L37.5161 60.7278C37.2441 60.9772 37.4822 60.734 32.8462 65.7325C26.5439 63.3198 21.6355 58.1281 15.9455 54.4722C15.7225 54.3307 15.51 54.6649 15.7305 54.8067C21.3779 58.4355 26.2354 63.5705 32.5587 66.0427C31.7526 66.912 30.9453 67.7807 30.1411 68.651C28.2966 70.6359 28.3184 71.5107 29.0454 73.2491L30.1091 75.8315C29.3744 77.0526 30.0636 78.0538 31.1352 78.3095L31.1864 78.4312L20.7381 77.348C20.3169 77.3022 19.9812 76.9956 19.8997 76.5764C17.4778 66.6534 14.9481 53.3777 11.9374 34.7929C11.8187 34.1589 12.3475 33.5934 12.9811 33.6751Z" fill="#0F172A"/>
<path d="M77.1733 69.7601C80.6486 65.3406 81.3639 59.0018 78.9533 53.9884C75.4844 46.6979 67.0221 43.3522 59.4688 46.4744C55.4176 48.1724 52.2913 51.4125 51.1056 55.1419C49.2597 60.9017 50.4706 67.0363 54.1908 70.7712C60.543 77.1618 71.2009 77.3103 77.1733 69.7601ZM63.9764 75.0273C63.7387 75.0046 62.9689 74.9153 62.7365 74.8201C60.7325 73.9993 58.9415 72.8001 57.4484 71.2773C53.4962 67.2985 52.7528 61.0222 54.4066 55.8312C56.1844 50.2078 62.3744 45.949 68.8596 46.1504C69.1516 46.2243 69.4432 46.3007 69.7307 46.3933C69.7509 46.3999 69.7781 46.4092 69.7928 46.403C73.7227 47.6548 76.9555 50.7155 78.595 54.16C80.9416 59.0406 80.2445 65.2114 76.8613 69.5141C73.7074 73.5012 69.0119 75.5105 63.9764 75.0273ZM108.181 17.977C108.114 16.8475 107.144 15.9865 106.014 16.0539C104.885 16.1213 104.024 17.0915 104.091 18.221C104.158 19.3505 105.129 20.2115 106.258 20.1441C107.388 20.0768 108.249 19.1065 108.181 17.977ZM23.771 55.5639C24.1183 57.374 24.2484 59.0395 24.6656 60.7243C24.729 60.9791 25.1148 60.8841 25.0514 60.6288C24.6481 59.0004 24.5023 57.2648 24.1607 55.4857C24.654 55.3668 25.1647 55.1943 25.5193 54.8331C27.0857 53.2372 24.9474 48.3345 22.9801 47.7628C20.6032 47.0718 20.5235 51.7926 20.7796 53.1094C21.1249 54.8856 21.9563 55.846 23.771 55.5639ZM67.8681 33.0571C67.8794 33.1584 67.9656 33.2337 68.0653 33.2337C68.0727 33.2337 68.0801 33.2333 68.0878 33.2325C68.5764 33.1786 67.7916 32.4116 68.6867 29.9374C68.9909 29.0987 69.4965 28.2344 70.3894 28.1768C70.814 28.1501 71.2879 28.3624 71.6546 28.7482C71.9398 29.0476 72.1398 29.417 72.3049 29.758C71.5007 30.2429 70.5396 31.6414 70.3684 33.3031C70.3412 33.5671 70.7372 33.599 70.7635 33.3435C70.8964 32.0559 71.7289 30.4005 72.7235 29.9886C73.2925 29.753 74.0039 29.9148 74.415 30.374C74.9533 30.9756 75.6107 33.359 75.7971 34.1186C75.8192 34.2094 75.9003 34.27 75.99 34.27C76.0055 34.27 76.0214 34.268 76.0373 34.2641C76.144 34.2381 76.2092 34.1306 76.1829 34.0239C75.9762 33.1802 75.3212 30.7901 74.7107 30.1085C74.2134 29.5529 73.3686 29.347 72.6656 29.5914C72.4863 29.2203 72.2666 28.8147 71.9426 28.4741C71.0854 27.5722 69.8744 27.513 69.017 28.504C68.3738 29.2468 67.6646 31.2228 67.8681 33.0571ZM43.2981 35.9579C43.734 36.0538 44.1167 36.3677 44.2972 36.7768C44.329 36.849 44.4004 36.8952 44.4788 36.8952C44.4842 36.8952 44.4901 36.8948 44.4955 36.8944C44.5801 36.8874 44.6507 36.8273 44.6717 36.745C44.972 35.5498 45.4628 35.3579 45.1549 35.1688C45.061 35.1102 44.9387 35.1401 44.8817 35.234C44.6911 35.5445 44.5351 35.8733 44.4155 36.2156C44.1559 35.8939 43.7876 35.6586 43.3835 35.5698C43.2756 35.5465 43.1704 35.614 43.1468 35.7211C43.1231 35.8283 43.191 35.9342 43.2981 35.9579ZM44.6535 32.8642C45.0447 32.9857 45.3948 33.2337 45.6393 33.5624C45.7507 33.711 45.9877 33.6392 45.9971 33.4541C46.0552 32.3822 46.4707 32.1152 46.1466 31.9882C46.0437 31.9478 45.9288 31.9983 45.8888 32.1007C45.7771 32.3868 45.6963 32.6829 45.6482 32.9849C45.3959 32.7582 45.0955 32.5855 44.7714 32.4846C44.5219 32.4051 44.4013 32.7857 44.6535 32.8642ZM31.9138 88.5207C31.0413 95.4441 35.4253 102.122 42.4299 103.894C44.5318 107.161 50.2526 108.96 55.5146 107.026C55.76 106.935 55.6263 106.563 55.3772 106.652C50.2956 108.522 45.0563 106.777 43.0051 104.027C50.0766 105.492 46.9277 97.8594 43.5888 98.528C41.9647 98.8553 40.8621 100.931 42.1458 103.406C35.5399 101.527 31.4783 95.1556 32.3081 88.5704C32.3402 88.313 31.9469 88.2536 31.9138 88.5207ZM43.6672 98.9177C45.4644 98.5545 47.2764 101.267 46.8312 102.638C46.4866 103.699 44.9985 103.959 43.6785 103.746C43.3435 103.693 43.0109 103.626 42.6814 103.547C42.6119 103.432 42.5456 103.314 42.4827 103.192C41.3517 101.01 42.2912 99.1953 43.6672 98.9177ZM100.038 14.3349C99.4554 13.5936 98.8095 12.8934 98.1187 12.2538C97.9268 12.0759 97.6548 12.3668 97.8485 12.5457C98.5239 13.1709 99.1557 13.8556 99.7255 14.5802C99.8862 14.7875 100.201 14.5412 100.038 14.3349ZM101.075 11.2369C101.113 12.0741 101.239 12.9117 101.453 13.7255C101.521 13.9795 101.903 13.8795 101.838 13.6246C101.631 12.8379 101.509 12.0287 101.473 11.2191C101.462 10.96 101.064 10.9718 101.075 11.2369ZM96.983 16.3551C101.627 16.7172 100.023 16.5917 100.372 16.619C100.626 16.619 100.639 16.242 100.388 16.2223L97.0141 15.9592C96.7532 15.9278 96.719 16.3345 96.983 16.3551Z" fill="#0F172A"/>
<path d="M65.9918 50.9894C61.383 51.2653 58.5673 56.1049 60.4754 60.194C62.4317 63.2559 65.2414 67.6229 66.0677 68.9265C64.394 69.03 63.1375 69.4617 63.1375 69.9794C63.1375 70.5743 64.7953 71.0565 66.8402 71.0565C68.8852 71.0565 70.5429 70.5743 70.5429 69.9794C70.5429 69.4515 69.2355 69.0142 67.5124 68.9219C67.8524 68.312 71.8767 60.9789 72.0965 60.5676C74.4993 56.1393 71.1063 50.6832 65.9918 50.9894ZM66.5721 60.7743C64.9585 60.8776 63.5754 59.6455 63.4801 58.0319C63.3847 56.4184 64.6167 55.0353 66.2303 54.9399C67.8359 54.8445 69.227 56.0686 69.3224 57.6822C69.4177 59.2958 68.1857 60.6789 66.5721 60.7743Z" fill="#0F172A"/>
</svg>
